# xmcd
#
# Track frame offsets: 
#        182
#        13832
#        26157
#        35787
#        45392
#        56967
#        71825
#        85392
#        97242
#        107122
#        117827
#        129900
#
# Disc length: 1936 seconds
#
# Revision: 2
# Processed by: cddbd v1.5.1PL0 Copyright (c) Steve Scherf et al.
# Submitted via: ExactAudioCopy v0.95b2
#
DISCID=ae078e0c
DTITLE=Leon Redbone - Red To Blue
DYEAR=1985
DGENRE=Blues
TTITLE0=Diamonds Don't Mean A Thing
TTITLE1=Lovesick Blues
TTITLE2=Reaching For Someone And Not Finding Anyone There
TTITLE3=Somebody Stole My Gal
TTITLE4=Steal Away Blues
TTITLE5=Aw You Salty Dog
TTITLE6=Border Of The Quarter
TTITLE7=Someday Sweetheart
TTITLE8=Whose Honey Are You?
TTITLE9=Living With The Blues
TTITLE10=Nobody Cares If I'm Blue
TTITLE11=Think Of Me Thinking Of You
EXTD=
EXTT0=
EXTT1=
EXTT2=
EXTT3=
EXTT4=
EXTT5=
EXTT6=
EXTT7=
EXTT8=
EXTT9=
EXTT10=
EXTT11=
PLAYORDER=
